<svg width="2292.000000" height="763.000000" viewBox="0 0 2292 763" fill="none" xmlns="http://www.w3.org/2000/svg" xmlns:xlink="http://www.w3.org/1999/xlink">
	<desc>
			Created with Pixso.
	</desc>
	<defs>
		<radialGradient gradientTransform="translate(1622 555.5) rotate(90) scale(207.5 670)" cx="0.000000" cy="0.000000" r="1.000000" id="paint_radial_124_879_0" gradientUnits="userSpaceOnUse">
			<stop stop-color="#0054FF"/>
			<stop offset="1.000000" stop-color="#0A0C0F" stop-opacity="0.000000"/>
		</radialGradient>
		<radialGradient gradientTransform="translate(670 178.5) rotate(90) scale(178.5 670)" cx="0.000000" cy="0.000000" r="1.000000" id="paint_radial_124_955_0" gradientUnits="userSpaceOnUse">
			<stop stop-color="#0054FF"/>
			<stop offset="1.000000" stop-color="#0A0C0F" stop-opacity="0.000000"/>
		</radialGradient>
	</defs>
	<mask id="mask124_879" mask-type="alpha" maskUnits="userSpaceOnUse" x="952.000000" y="348.000000" width="1340.000000" height="415.000000">
		<ellipse cx="1622.000000" cy="555.500000" rx="670.000000" ry="207.500000" fill="url(#paint_radial_124_879_0)" fill-opacity="1.000000"/>
	</mask>
	<g mask="url(#mask124_879)">
		<path d="M1705.46 -27.73L1705.46 759.72" stroke="#172136" stroke-opacity="1.000000" stroke-width="1.000000"/>
		<path d="M1613.83 -27.73L1613.83 759.72" stroke="#172136" stroke-opacity="1.000000" stroke-width="1.000000"/>
		<path d="M1798.06 -27.73L1798.06 759.72" stroke="#172136" stroke-opacity="1.000000" stroke-width="1.000000"/>
		<path d="M1889.69 -27.73L1889.69 759.72" stroke="#172136" stroke-opacity="1.000000" stroke-width="1.000000"/>
		<path d="M1982.29 -27.73L1982.29 759.72" stroke="#172136" stroke-opacity="1.000000" stroke-width="1.000000"/>
		<path d="M2073.92 -27.73L2073.92 759.72" stroke="#172136" stroke-opacity="1.000000" stroke-width="1.000000"/>
		<path d="M2165.55 -27.73L2165.55 759.72" stroke="#172136" stroke-opacity="1.000000" stroke-width="1.000000"/>
		<path d="M2258.14 -27.73L2258.14 759.72" stroke="#172136" stroke-opacity="1.000000" stroke-width="1.000000"/>
		<path d="M2349.78 -27.73L2349.78 759.72" stroke="#172136" stroke-opacity="1.000000" stroke-width="1.000000"/>
		<path d="M1751.76 -27.73L1751.76 759.72" stroke="#172136" stroke-opacity="1.000000" stroke-width="1.000000"/>
		<path d="M1660.13 -27.73L1660.13 759.72" stroke="#172136" stroke-opacity="1.000000" stroke-width="1.000000"/>
		<path d="M1844.36 -27.73L1844.36 759.72" stroke="#172136" stroke-opacity="1.000000" stroke-width="1.000000"/>
		<path d="M1935.99 -27.73L1935.99 759.72" stroke="#172136" stroke-opacity="1.000000" stroke-width="1.000000"/>
		<path d="M2027.62 -27.73L2027.62 759.72" stroke="#172136" stroke-opacity="1.000000" stroke-width="1.000000"/>
		<path d="M2120.22 -27.73L2120.22 759.72" stroke="#172136" stroke-opacity="1.000000" stroke-width="1.000000"/>
		<path d="M2211.85 -27.73L2211.85 759.72" stroke="#172136" stroke-opacity="1.000000" stroke-width="1.000000"/>
		<path d="M2304.45 -27.73L2304.45 759.72" stroke="#172136" stroke-opacity="1.000000" stroke-width="1.000000"/>
		<path d="M2396.08 -27.73L2396.08 759.72" stroke="#172136" stroke-opacity="1.000000" stroke-width="1.000000"/>
		<path d="M1611.9 667.19L2396.08 667.19" stroke="#172136" stroke-opacity="1.000000" stroke-width="1.000000"/>
		<path d="M1611.9 759.72L2396.08 759.72" stroke="#172136" stroke-opacity="1.000000" stroke-width="1.000000"/>
		<path d="M1611.9 574.66L2396.08 574.66" stroke="#172136" stroke-opacity="1.000000" stroke-width="1.000000"/>
		<path d="M1611.9 482.14L2396.08 482.14" stroke="#172136" stroke-opacity="1.000000" stroke-width="1.000000"/>
		<path d="M1611.9 389.61L2396.08 389.61" stroke="#172136" stroke-opacity="1.000000" stroke-width="1.000000"/>
		<path d="M1611.9 297.08L2396.08 297.08" stroke="#172136" stroke-opacity="1.000000" stroke-width="1.000000"/>
		<path d="M1611.9 204.55L2396.08 204.55" stroke="#172136" stroke-opacity="1.000000" stroke-width="1.000000"/>
		<path d="M1611.9 112.03L2396.08 112.03" stroke="#172136" stroke-opacity="1.000000" stroke-width="1.000000"/>
		<path d="M1611.9 18.53L2396.08 18.53" stroke="#172136" stroke-opacity="1.000000" stroke-width="1.000000"/>
		<path d="M1611.9 620.93L2396.08 620.93" stroke="#172136" stroke-opacity="1.000000" stroke-width="1.000000"/>
		<path d="M1611.9 713.46L2396.08 713.46" stroke="#172136" stroke-opacity="1.000000" stroke-width="1.000000"/>
		<path d="M1611.9 528.4L2396.08 528.4" stroke="#172136" stroke-opacity="1.000000" stroke-width="1.000000"/>
		<path d="M1611.9 435.87L2396.08 435.87" stroke="#172136" stroke-opacity="1.000000" stroke-width="1.000000"/>
		<path d="M1611.9 343.35L2396.08 343.35" stroke="#172136" stroke-opacity="1.000000" stroke-width="1.000000"/>
		<path d="M1611.9 250.82L2396.08 250.82" stroke="#172136" stroke-opacity="1.000000" stroke-width="1.000000"/>
		<path d="M1611.9 158.29L2396.08 158.29" stroke="#172136" stroke-opacity="1.000000" stroke-width="1.000000"/>
		<path d="M1611.9 65.76L2396.08 65.76" stroke="#172136" stroke-opacity="1.000000" stroke-width="1.000000"/>
		<path d="M1611.9 -27.73L2396.08 -27.73" stroke="#172136" stroke-opacity="1.000000" stroke-width="1.000000"/>
	</g>
	<g mask="url(#mask124_879)">
		<path d="M923.2 -27.73L923.2 759.72" stroke="#172136" stroke-opacity="1.000000" stroke-width="1.000000"/>
		<path d="M831.57 -27.73L831.57 759.72" stroke="#172136" stroke-opacity="1.000000" stroke-width="1.000000"/>
		<path d="M1015.81 -27.73L1015.81 759.72" stroke="#172136" stroke-opacity="1.000000" stroke-width="1.000000"/>
		<path d="M1107.43 -27.73L1107.43 759.72" stroke="#172136" stroke-opacity="1.000000" stroke-width="1.000000"/>
		<path d="M1200.04 -27.73L1200.04 759.72" stroke="#172136" stroke-opacity="1.000000" stroke-width="1.000000"/>
		<path d="M1291.67 -27.73L1291.67 759.72" stroke="#172136" stroke-opacity="1.000000" stroke-width="1.000000"/>
		<path d="M1383.3 -27.73L1383.3 759.72" stroke="#172136" stroke-opacity="1.000000" stroke-width="1.000000"/>
		<path d="M1475.9 -27.73L1475.9 759.72" stroke="#172136" stroke-opacity="1.000000" stroke-width="1.000000"/>
		<path d="M1567.53 -27.73L1567.53 759.72" stroke="#172136" stroke-opacity="1.000000" stroke-width="1.000000"/>
		<path d="M969.5 -27.73L969.5 759.72" stroke="#172136" stroke-opacity="1.000000" stroke-width="1.000000"/>
		<path d="M877.87 -27.73L877.87 759.72" stroke="#172136" stroke-opacity="1.000000" stroke-width="1.000000"/>
		<path d="M1062.1 -27.73L1062.1 759.72" stroke="#172136" stroke-opacity="1.000000" stroke-width="1.000000"/>
		<path d="M1153.74 -27.73L1153.74 759.72" stroke="#172136" stroke-opacity="1.000000" stroke-width="1.000000"/>
		<path d="M1245.37 -27.73L1245.37 759.72" stroke="#172136" stroke-opacity="1.000000" stroke-width="1.000000"/>
		<path d="M1337.97 -27.73L1337.97 759.72" stroke="#172136" stroke-opacity="1.000000" stroke-width="1.000000"/>
		<path d="M1429.6 -27.73L1429.6 759.72" stroke="#172136" stroke-opacity="1.000000" stroke-width="1.000000"/>
		<path d="M1522.2 -27.73L1522.2 759.72" stroke="#172136" stroke-opacity="1.000000" stroke-width="1.000000"/>
		<path d="M1613.83 -27.73L1613.83 759.72" stroke="#172136" stroke-opacity="1.000000" stroke-width="1.000000"/>
		<path d="M829.64 667.19L1613.83 667.19" stroke="#172136" stroke-opacity="1.000000" stroke-width="1.000000"/>
		<path d="M829.64 759.72L1613.83 759.72" stroke="#172136" stroke-opacity="1.000000" stroke-width="1.000000"/>
		<path d="M829.64 574.67L1613.83 574.67" stroke="#172136" stroke-opacity="1.000000" stroke-width="1.000000"/>
		<path d="M829.64 482.14L1613.83 482.14" stroke="#172136" stroke-opacity="1.000000" stroke-width="1.000000"/>
		<path d="M829.64 389.61L1613.83 389.61" stroke="#172136" stroke-opacity="1.000000" stroke-width="1.000000"/>
		<path d="M829.64 297.08L1613.83 297.08" stroke="#172136" stroke-opacity="1.000000" stroke-width="1.000000"/>
		<path d="M829.64 204.55L1613.83 204.55" stroke="#172136" stroke-opacity="1.000000" stroke-width="1.000000"/>
		<path d="M829.64 112.03L1613.83 112.03" stroke="#172136" stroke-opacity="1.000000" stroke-width="1.000000"/>
		<path d="M829.64 18.53L1613.83 18.53" stroke="#172136" stroke-opacity="1.000000" stroke-width="1.000000"/>
		<path d="M829.64 620.93L1613.83 620.93" stroke="#172136" stroke-opacity="1.000000" stroke-width="1.000000"/>
		<path d="M829.64 713.46L1613.83 713.46" stroke="#172136" stroke-opacity="1.000000" stroke-width="1.000000"/>
		<path d="M829.64 528.4L1613.83 528.4" stroke="#172136" stroke-opacity="1.000000" stroke-width="1.000000"/>
		<path d="M829.64 435.87L1613.83 435.87" stroke="#172136" stroke-opacity="1.000000" stroke-width="1.000000"/>
		<path d="M829.64 343.35L1613.83 343.35" stroke="#172136" stroke-opacity="1.000000" stroke-width="1.000000"/>
		<path d="M829.64 250.82L1613.83 250.82" stroke="#172136" stroke-opacity="1.000000" stroke-width="1.000000"/>
		<path d="M829.64 158.29L1613.83 158.29" stroke="#172136" stroke-opacity="1.000000" stroke-width="1.000000"/>
		<path d="M829.64 65.76L1613.83 65.76" stroke="#172136" stroke-opacity="1.000000" stroke-width="1.000000"/>
		<path d="M829.64 -27.73L1613.83 -27.73" stroke="#172136" stroke-opacity="1.000000" stroke-width="1.000000"/>
	</g>
	<mask id="mask124_955" mask-type="alpha" maskUnits="userSpaceOnUse" x="0.000000" y="0.000000" width="1340.000000" height="357.000000">
		<ellipse cx="670.000000" cy="178.500000" rx="670.000000" ry="178.500000" fill="url(#paint_radial_124_955_0)" fill-opacity="1.000000"/>
	</mask>
	<g mask="url(#mask124_955)">
		<path d="M602.89 -260.73L602.89 526.72" stroke="#172136" stroke-opacity="1.000000" stroke-width="1.000000"/>
		<path d="M511.33 -260.73L511.33 526.72" stroke="#172136" stroke-opacity="1.000000" stroke-width="1.000000"/>
		<path d="M695.42 -260.73L695.42 526.72" stroke="#172136" stroke-opacity="1.000000" stroke-width="1.000000"/>
		<path d="M786.98 -260.73L786.98 526.72" stroke="#172136" stroke-opacity="1.000000" stroke-width="1.000000"/>
		<path d="M879.51 -260.73L879.51 526.72" stroke="#172136" stroke-opacity="1.000000" stroke-width="1.000000"/>
		<path d="M971.08 -260.73L971.08 526.72" stroke="#172136" stroke-opacity="1.000000" stroke-width="1.000000"/>
		<path d="M1062.64 -260.73L1062.64 526.72" stroke="#172136" stroke-opacity="1.000000" stroke-width="1.000000"/>
		<path d="M1155.17 -260.73L1155.17 526.72" stroke="#172136" stroke-opacity="1.000000" stroke-width="1.000000"/>
		<path d="M1246.74 -260.73L1246.74 526.72" stroke="#172136" stroke-opacity="1.000000" stroke-width="1.000000"/>
		<path d="M649.16 -260.73L649.16 526.72" stroke="#172136" stroke-opacity="1.000000" stroke-width="1.000000"/>
		<path d="M557.59 -260.73L557.59 526.72" stroke="#172136" stroke-opacity="1.000000" stroke-width="1.000000"/>
		<path d="M741.68 -260.73L741.68 526.72" stroke="#172136" stroke-opacity="1.000000" stroke-width="1.000000"/>
		<path d="M833.25 -260.73L833.25 526.72" stroke="#172136" stroke-opacity="1.000000" stroke-width="1.000000"/>
		<path d="M924.81 -260.73L924.81 526.72" stroke="#172136" stroke-opacity="1.000000" stroke-width="1.000000"/>
		<path d="M1017.34 -260.73L1017.34 526.72" stroke="#172136" stroke-opacity="1.000000" stroke-width="1.000000"/>
		<path d="M1108.91 -260.73L1108.91 526.72" stroke="#172136" stroke-opacity="1.000000" stroke-width="1.000000"/>
		<path d="M1201.43 -260.73L1201.43 526.72" stroke="#172136" stroke-opacity="1.000000" stroke-width="1.000000"/>
		<path d="M1293 -260.73L1293 526.72" stroke="#172136" stroke-opacity="1.000000" stroke-width="1.000000"/>
		<path d="M509.4 434.19L1293 434.19" stroke="#172136" stroke-opacity="1.000000" stroke-width="1.000000"/>
		<path d="M509.4 526.72L1293 526.72" stroke="#172136" stroke-opacity="1.000000" stroke-width="1.000000"/>
		<path d="M509.4 341.66L1293 341.66" stroke="#172136" stroke-opacity="1.000000" stroke-width="1.000000"/>
		<path d="M509.4 249.14L1293 249.14" stroke="#172136" stroke-opacity="1.000000" stroke-width="1.000000"/>
		<path d="M509.4 156.61L1293 156.61" stroke="#172136" stroke-opacity="1.000000" stroke-width="1.000000"/>
		<path d="M509.4 64.08L1293 64.08" stroke="#172136" stroke-opacity="1.000000" stroke-width="1.000000"/>
		<path d="M509.4 -28.45L1293 -28.45" stroke="#172136" stroke-opacity="1.000000" stroke-width="1.000000"/>
		<path d="M509.4 -120.97L1293 -120.97" stroke="#172136" stroke-opacity="1.000000" stroke-width="1.000000"/>
		<path d="M509.4 -214.47L1293 -214.47" stroke="#172136" stroke-opacity="1.000000" stroke-width="1.000000"/>
		<path d="M509.4 387.93L1293 387.93" stroke="#172136" stroke-opacity="1.000000" stroke-width="1.000000"/>
		<path d="M509.4 480.46L1293 480.46" stroke="#172136" stroke-opacity="1.000000" stroke-width="1.000000"/>
		<path d="M509.4 295.4L1293 295.4" stroke="#172136" stroke-opacity="1.000000" stroke-width="1.000000"/>
		<path d="M509.4 202.87L1293 202.87" stroke="#172136" stroke-opacity="1.000000" stroke-width="1.000000"/>
		<path d="M509.4 110.35L1293 110.35" stroke="#172136" stroke-opacity="1.000000" stroke-width="1.000000"/>
		<path d="M509.4 17.82L1293 17.82" stroke="#172136" stroke-opacity="1.000000" stroke-width="1.000000"/>
		<path d="M509.4 -74.71L1293 -74.71" stroke="#172136" stroke-opacity="1.000000" stroke-width="1.000000"/>
		<path d="M509.4 -167.24L1293 -167.24" stroke="#172136" stroke-opacity="1.000000" stroke-width="1.000000"/>
		<path d="M509.4 -260.73L1293 -260.73" stroke="#172136" stroke-opacity="1.000000" stroke-width="1.000000"/>
	</g>
	<g mask="url(#mask124_955)">
		<path d="M-178.77 -260.73L-178.77 526.72" stroke="#172136" stroke-opacity="1.000000" stroke-width="1.000000"/>
		<path d="M-270.34 -260.73L-270.34 526.72" stroke="#172136" stroke-opacity="1.000000" stroke-width="1.000000"/>
		<path d="M-86.25 -260.73L-86.25 526.72" stroke="#172136" stroke-opacity="1.000000" stroke-width="1.000000"/>
		<path d="M5.32 -260.73L5.32 526.72" stroke="#172136" stroke-opacity="1.000000" stroke-width="1.000000"/>
		<path d="M97.85 -260.73L97.85 526.72" stroke="#172136" stroke-opacity="1.000000" stroke-width="1.000000"/>
		<path d="M189.41 -260.73L189.41 526.72" stroke="#172136" stroke-opacity="1.000000" stroke-width="1.000000"/>
		<path d="M280.97 -260.73L280.97 526.72" stroke="#172136" stroke-opacity="1.000000" stroke-width="1.000000"/>
		<path d="M373.5 -260.73L373.5 526.72" stroke="#172136" stroke-opacity="1.000000" stroke-width="1.000000"/>
		<path d="M465.07 -260.73L465.07 526.72" stroke="#172136" stroke-opacity="1.000000" stroke-width="1.000000"/>
		<path d="M-132.51 -260.73L-132.51 526.72" stroke="#172136" stroke-opacity="1.000000" stroke-width="1.000000"/>
		<path d="M-224.07 -260.73L-224.07 526.72" stroke="#172136" stroke-opacity="1.000000" stroke-width="1.000000"/>
		<path d="M-39.98 -260.73L-39.98 526.72" stroke="#172136" stroke-opacity="1.000000" stroke-width="1.000000"/>
		<path d="M51.58 -260.73L51.58 526.72" stroke="#172136" stroke-opacity="1.000000" stroke-width="1.000000"/>
		<path d="M143.14 -260.73L143.14 526.72" stroke="#172136" stroke-opacity="1.000000" stroke-width="1.000000"/>
		<path d="M235.67 -260.73L235.67 526.72" stroke="#172136" stroke-opacity="1.000000" stroke-width="1.000000"/>
		<path d="M327.24 -260.73L327.24 526.72" stroke="#172136" stroke-opacity="1.000000" stroke-width="1.000000"/>
		<path d="M419.76 -260.73L419.77 526.72" stroke="#172136" stroke-opacity="1.000000" stroke-width="1.000000"/>
		<path d="M511.33 -260.73L511.33 526.72" stroke="#172136" stroke-opacity="1.000000" stroke-width="1.000000"/>
		<path d="M-272.27 434.19L511.33 434.19" stroke="#172136" stroke-opacity="1.000000" stroke-width="1.000000"/>
		<path d="M-272.27 526.72L511.33 526.72" stroke="#172136" stroke-opacity="1.000000" stroke-width="1.000000"/>
		<path d="M-272.27 341.67L511.33 341.67" stroke="#172136" stroke-opacity="1.000000" stroke-width="1.000000"/>
		<path d="M-272.27 249.14L511.33 249.14" stroke="#172136" stroke-opacity="1.000000" stroke-width="1.000000"/>
		<path d="M-272.27 156.61L511.33 156.61" stroke="#172136" stroke-opacity="1.000000" stroke-width="1.000000"/>
		<path d="M-272.27 64.08L511.33 64.08" stroke="#172136" stroke-opacity="1.000000" stroke-width="1.000000"/>
		<path d="M-272.27 -28.45L511.33 -28.45" stroke="#172136" stroke-opacity="1.000000" stroke-width="1.000000"/>
		<path d="M-272.27 -120.97L511.33 -120.97" stroke="#172136" stroke-opacity="1.000000" stroke-width="1.000000"/>
		<path d="M-272.27 -214.47L511.33 -214.47" stroke="#172136" stroke-opacity="1.000000" stroke-width="1.000000"/>
		<path d="M-272.27 387.93L511.33 387.93" stroke="#172136" stroke-opacity="1.000000" stroke-width="1.000000"/>
		<path d="M-272.27 480.46L511.33 480.46" stroke="#172136" stroke-opacity="1.000000" stroke-width="1.000000"/>
		<path d="M-272.27 295.4L511.33 295.4" stroke="#172136" stroke-opacity="1.000000" stroke-width="1.000000"/>
		<path d="M-272.27 202.87L511.33 202.87" stroke="#172136" stroke-opacity="1.000000" stroke-width="1.000000"/>
		<path d="M-272.27 110.35L511.33 110.35" stroke="#172136" stroke-opacity="1.000000" stroke-width="1.000000"/>
		<path d="M-272.27 17.82L511.33 17.82" stroke="#172136" stroke-opacity="1.000000" stroke-width="1.000000"/>
		<path d="M-272.27 -74.71L511.33 -74.71" stroke="#172136" stroke-opacity="1.000000" stroke-width="1.000000"/>
		<path d="M-272.27 -167.24L511.33 -167.24" stroke="#172136" stroke-opacity="1.000000" stroke-width="1.000000"/>
		<path d="M-272.27 -260.73L511.33 -260.73" stroke="#172136" stroke-opacity="1.000000" stroke-width="1.000000"/>
	</g>
	<circle cx="420.000000" cy="203.000000" r="1.000000" fill="#3D79F5" fill-opacity="1.000000"/>
	<circle cx="1292.000000" cy="621.000000" r="1.000000" fill="#3D79F5" fill-opacity="1.000000"/>
	<circle cx="1568.000000" cy="482.000000" r="1.000000" fill="#3D79F5" fill-opacity="1.000000"/>
	<circle cx="1522.000000" cy="528.000000" r="1.000000" fill="#3D79F5" fill-opacity="1.000000"/>
	<circle cx="558.000000" cy="249.000000" r="1.000000" fill="#3D79F5" fill-opacity="1.000000"/>
	<circle cx="511.000000" cy="157.000000" r="1.000000" fill="#3D79F5" fill-opacity="1.000000"/>
	<circle cx="971.000000" cy="249.000000" r="1.000000" fill="#243BB9" fill-opacity="1.000000"/>
	<circle cx="1109.000000" cy="203.000000" r="1.000000" fill="#012A7E" fill-opacity="1.000000"/>
	<circle cx="1614.000000" cy="390.000000" r="1.000000" fill="#012A7E" fill-opacity="1.000000"/>
	<circle cx="1522.000000" cy="621.000000" r="1.000000" fill="#012A7E" fill-opacity="1.000000"/>
</svg>
