<svg width="82.000000" height="82.000000" viewBox="0 0 82 82" fill="none" xmlns="http://www.w3.org/2000/svg" xmlns:xlink="http://www.w3.org/1999/xlink">
	<desc>
			Created with Pixso.
	</desc>
	<defs>
		<filter id="filter_124_746_dd" x="0.000000" y="0.000000" width="82.000000" height="82.000000" filterUnits="userSpaceOnUse" color-interpolation-filters="sRGB">
			<feFlood flood-opacity="0" result="BackgroundImageFix"/>
			<feBlend mode="normal" in="SourceGraphic" in2="BackgroundImageFix" result="shape"/>
			<feGaussianBlur stdDeviation="10" result="effect_layerBlur_1"/>
		</filter>
		<filter id="filter_124_748_dd" x="16.437500" y="16.437500" width="49.125000" height="49.125000" filterUnits="userSpaceOnUse" color-interpolation-filters="sRGB">
			<feFlood flood-opacity="0" result="BackgroundImageFix"/>
			<feColorMatrix in="SourceAlpha" type="matrix" values="0 0 0 0 0 0 0 0 0 0 0 0 0 0 0 0 0 0 127 0" result="hardAlpha"/>
			<feOffset dx="0" dy="0"/>
			<feGaussianBlur stdDeviation="2.1875"/>
			<feComposite in2="hardAlpha" operator="out" k2="-1" k3="1"/>
			<feColorMatrix type="matrix" values="0 0 0 0 0 0 0 0 0 0 0 0 0 0 0 0 0 0 0.4 0"/>
			<feBlend mode="normal" in2="BackgroundImageFix" result="effect_dropShadow_1"/>
			<feBlend mode="normal" in="SourceGraphic" in2="effect_dropShadow_1" result="shape"/>
		</filter>
		<clipPath id="clip124_749">
			<rect id="reload 2" width="22.000000" height="22.000000" transform="translate(30.000000 30.000000)" fill="white" fill-opacity="0"/>
		</clipPath>
		<linearGradient x1="41.000000" y1="23.000000" x2="41.000000" y2="59.000000" id="paint_linear_124_748_0" gradientUnits="userSpaceOnUse">
			<stop stop-color="#284A90"/>
			<stop offset="1.000000" stop-color="#284A90" stop-opacity="0.400000"/>
		</linearGradient>
		<linearGradient x1="41.000000" y1="23.000000" x2="41.000000" y2="59.000000" id="paint_linear_124_748_1" gradientUnits="userSpaceOnUse">
			<stop stop-color="#749FF6"/>
			<stop offset="0.430493" stop-color="#153984"/>
		</linearGradient>
		<linearGradient x1="41.112095" y1="31.672546" x2="41.112095" y2="50.321972" id="paint_linear_124_750_0" gradientUnits="userSpaceOnUse">
			<stop stop-color="#8096CB"/>
			<stop offset="1.000000" stop-color="#8096CB" stop-opacity="0.501961"/>
		</linearGradient>
	</defs>
	<g opacity="0.800000" filter="url(#filter_124_746_dd)">
		<circle id="Ellipse 14896" cx="41.000000" cy="41.000000" r="11.000000" fill="#0054FF" fill-opacity="1.000000"/>
	</g>
	<g filter="url(#filter_124_748_dd)">
		<rect id="Rectangle 34624903" x="23.000000" y="23.000000" rx="7.000000" width="36.000000" height="36.000000" fill="url(#paint_linear_124_748_0)" fill-opacity="0.350000"/>
		<rect id="Rectangle 34624903" x="23.500000" y="23.500000" rx="7.000000" width="35.000000" height="35.000000" stroke="url(#paint_linear_124_748_1)" stroke-opacity="0.300000" stroke-width="1.000000"/>
	</g>
	<rect id="reload 2" width="22.000000" height="22.000000" transform="translate(30.000000 30.000000)" fill="#FFFFFF" fill-opacity="0"/>
	<g clip-path="url(#clip124_749)">
		<path id="Union" d="M32.6062 37.9316L32.6062 37.9316Q32.8611 37.2314 33.2343 36.5752Q33.6074 35.9189 34.0781 35.3428L34.0781 35.3428Q34.5487 34.7656 35.1169 34.2686Q35.6851 33.7715 36.3191 33.3809Q36.9532 32.9912 37.6532 32.708Q38.3533 32.4248 39.0802 32.2646L39.0803 32.2646L39.0803 32.2646L39.0803 32.2646Q39.8074 32.1045 40.5615 32.0674Q41.3156 32.0303 42.0548 32.1182Q42.7941 32.2061 43.5186 32.4189Q44.243 32.6318 44.9124 32.957Q45.5817 33.2832 46.196 33.7227Q46.8102 34.1611 47.3353 34.6885Q47.8605 35.2168 48.2964 35.833Q48.7323 36.4502 49.0548 37.1211L49.0548 37.1211Q49.1317 37.2812 49.2021 37.4443L49.8383 35.2969C49.9407 34.9502 50.293 34.7598 50.6388 34.8613C50.9847 34.9639 51.176 35.3164 51.0736 35.6621L49.9017 39.6182Q49.8639 39.7461 49.7863 39.8418Q49.7087 39.9375 49.5914 40.002Q49.4742 40.0654 49.3516 40.0781Q49.229 40.0908 49.1011 40.0527Q49.0922 40.0508 49.0834 40.0479Q49.0735 40.0439 49.0637 40.041Q49.056 40.0381 49.0485 40.0352Q49.0471 40.0342 49.0458 40.0342Q49.0363 40.0303 49.0269 40.0264L45.2153 38.3662C44.8845 38.2227 44.7378 37.8496 44.8818 37.5186C45.0259 37.1885 45.3989 37.041 45.7296 37.1855L48.1322 38.2314Q48.0236 37.9502 47.8933 37.6787L47.8929 37.6777Q47.6171 37.1045 47.2444 36.5771Q46.8713 36.0498 46.4219 35.5977L46.4219 35.5977Q45.9725 35.1465 45.4469 34.7705Q44.9211 34.3945 44.3484 34.1162Q43.7755 33.8369 43.1555 33.6553Q42.5356 33.4727 41.9031 33.3975L41.903 33.3975L41.903 33.3975Q41.2703 33.3223 40.6249 33.3545Q39.98 33.3867 39.3583 33.5234L39.3583 33.5234L39.3573 33.5234L39.3564 33.5234L39.3564 33.5234Q38.7346 33.6602 38.136 33.9023Q37.537 34.1445 36.9944 34.4785Q36.4517 34.8125 35.9655 35.2383Q35.4794 35.6631 35.0768 36.1562L35.0764 36.1572Q34.6737 36.6504 34.3544 37.2119Q34.035 37.7744 33.8168 38.373L33.8168 38.373L33.8168 38.373Q33.5986 38.9717 33.4816 39.6064C33.4163 39.9619 33.0862 40.1885 32.7314 40.124C32.3766 40.0586 32.1492 39.7285 32.2145 39.373Q32.3512 38.6309 32.6062 37.9316ZM49.3932 44.0615Q49.6482 43.3623 49.785 42.6191C49.8503 42.2646 49.6229 41.9346 49.2681 41.8691C48.9133 41.8037 48.5833 42.0312 48.5178 42.3857Q48.4009 43.0215 48.1826 43.6201L48.1826 43.6201Q47.9645 44.2188 47.6451 44.7803Q47.3258 45.3418 46.923 45.8359L46.923 45.8359Q46.5201 46.3291 46.0341 46.7549Q45.5479 47.1807 45.0051 47.5146L45.0051 47.5146Q44.4625 47.8486 43.8634 48.0908Q43.2644 48.332 42.6421 48.4697Q42.0199 48.6064 41.3746 48.6387Q40.7292 48.6699 40.0964 48.5947L40.0964 48.5947Q39.4639 48.5195 38.8439 48.3379Q38.224 48.1553 37.6511 47.877Q37.0782 47.5977 36.5526 47.2227Q36.0269 46.8467 35.5775 46.3945Q35.1282 45.9434 34.7551 45.416Q34.3821 44.8877 34.1061 44.3135L34.1061 44.3135Q33.9991 44.0908 33.9069 43.8623L36.2239 44.5273C36.5706 44.627 36.9213 44.4326 37.0209 44.0859C37.1205 43.7393 36.9263 43.3887 36.5796 43.2891L32.584 42.1416Q32.5651 42.1357 32.5458 42.1318Q32.5265 42.127 32.507 42.124Q32.2434 42.082 32.0275 42.2393Q31.8116 42.3965 31.7699 42.6602L31.1244 46.7344C31.068 47.0908 31.3036 47.415 31.6599 47.4717C32.0162 47.5283 32.3406 47.293 32.397 46.9365L32.7811 44.5107Q32.8589 44.6934 32.9447 44.8721L32.9447 44.8721L32.9448 44.8721Q33.2672 45.543 33.7031 46.1592Q34.139 46.7764 34.6641 47.3037L34.6642 47.3037Q35.1892 47.8311 35.8035 48.2705Q36.4177 48.709 37.0872 49.0352L37.0872 49.0352Q37.7565 49.3613 38.481 49.5742Q39.2053 49.7871 39.9446 49.874Q40.6838 49.9619 41.438 49.9248Q42.1921 49.8877 42.9191 49.7275Q43.6462 49.5674 44.3463 49.2852Q45.0463 49.002 45.6803 48.6123L45.6804 48.6113Q46.3145 48.2217 46.8826 47.7246Q47.4507 47.2275 47.9213 46.6504Q48.392 46.0732 48.7651 45.417Q49.1383 44.7607 49.3932 44.0615Z" clip-rule="evenodd" fill="url(#paint_linear_124_750_0)" fill-opacity="1.000000" fill-rule="evenodd"/>
	</g>
</svg>
