<svg width="53.343750" height="53.343750" viewBox="0 0 53.3438 53.3438" fill="none" xmlns="http://www.w3.org/2000/svg" xmlns:xlink="http://www.w3.org/1999/xlink">
	<desc>
			Created with Pixso.
	</desc>
	<defs>
		<filter id="filter_124_716_dd" x="0.000000" y="0.000000" width="53.343750" height="53.343750" filterUnits="userSpaceOnUse" color-interpolation-filters="sRGB">
			<feFlood flood-opacity="0" result="BackgroundImageFix"/>
			<feColorMatrix in="SourceAlpha" type="matrix" values="0 0 0 0 0 0 0 0 0 0 0 0 0 0 0 0 0 0 127 0" result="hardAlpha"/>
			<feOffset dx="0" dy="0"/>
			<feGaussianBlur stdDeviation="2.89062"/>
			<feComposite in2="hardAlpha" operator="out" k2="-1" k3="1"/>
			<feColorMatrix type="matrix" values="0 0 0 0 0 0 0 0 0 0 0 0 0 0 0 0 0 0 0.4 0"/>
			<feBlend mode="normal" in2="BackgroundImageFix" result="effect_dropShadow_1"/>
			<feBlend mode="normal" in="SourceGraphic" in2="effect_dropShadow_1" result="shape"/>
		</filter>
		<linearGradient x1="26.671875" y1="8.671875" x2="26.671875" y2="44.671875" id="paint_linear_124_716_0" gradientUnits="userSpaceOnUse">
			<stop stop-color="#284A90"/>
			<stop offset="1.000000" stop-color="#284A90" stop-opacity="0.400000"/>
		</linearGradient>
		<linearGradient x1="26.671875" y1="8.671875" x2="26.671875" y2="44.671875" id="paint_linear_124_716_1" gradientUnits="userSpaceOnUse">
			<stop stop-color="#749FF6"/>
			<stop offset="0.430493" stop-color="#153984"/>
		</linearGradient>
		<linearGradient x1="26.517208" y1="13.855540" x2="26.517208" y2="39.172298" id="paint_linear_124_718_0" gradientUnits="userSpaceOnUse">
			<stop stop-color="#8096CC"/>
			<stop offset="1.000000" stop-color="#8096CB" stop-opacity="0.501961"/>
		</linearGradient>
	</defs>
	<g filter="url(#filter_124_716_dd)">
		<rect id="Rectangle 34624903" x="8.671875" y="8.671875" rx="9.249985" width="36.000000" height="36.000000" fill="url(#paint_linear_124_716_0)" fill-opacity="0.350000"/>
		<rect id="Rectangle 34624903" x="9.332581" y="9.333008" rx="9.249985" width="34.678574" height="34.678574" stroke="url(#paint_linear_124_716_1)" stroke-opacity="0.300000" stroke-width="1.321426"/>
	</g>
	<path id="Union" d="M22.8995 15.2441C22.8995 14.7588 23.2809 14.377 23.7663 14.377C24.2517 14.377 24.6331 14.7588 24.6331 15.2441L24.6331 19C24.6331 19.4854 24.2517 19.8672 23.7663 19.8672C23.2809 19.8672 22.8995 19.4854 22.8995 19L22.8995 15.2441ZM28.534 15.2441C28.534 14.7588 28.9154 14.377 29.4009 14.377C29.8863 14.377 30.2677 14.7588 30.2677 15.2441L30.2677 19C30.2677 19.4854 29.8863 19.8672 29.4009 19.8672C28.9154 19.8672 28.534 19.4854 28.534 19L28.534 15.2441ZM30.4132 20.877C31.3707 20.877 32.1469 21.6523 32.1469 22.6104L32.1469 30.4121C32.1469 31.3691 31.3707 32.1455 30.4132 32.1455L22.6116 32.1455C21.6541 32.1455 20.8779 31.3691 20.8779 30.4121L20.8779 22.6104C20.8779 21.6523 21.6541 20.877 22.6116 20.877L30.4132 20.877ZM30.4132 30.4121L30.4132 22.6104L22.6116 22.6104L22.6116 30.4121L30.4132 30.4121ZM15.2434 24.6367C14.758 24.6367 14.3766 24.2549 14.3766 23.7695C14.3766 23.2842 14.758 22.9033 15.2434 22.9033L18.9998 22.9033C19.4852 22.9033 19.8666 23.2842 19.8666 23.7695C19.8666 24.2549 19.4852 24.6367 18.9998 24.6367L15.2434 24.6367ZM34.0262 24.6367C33.5408 24.6367 33.1594 24.2549 33.1594 23.7695C33.1594 23.2842 33.5408 22.9033 34.0262 22.9033L37.7825 22.9033C38.268 22.9033 38.6494 23.2842 38.6494 23.7695C38.6494 24.2549 38.268 24.6367 37.7825 24.6367L34.0262 24.6367ZM15.2434 30.2676C14.758 30.2676 14.3766 29.8867 14.3766 29.4014C14.3766 28.915 14.758 28.5342 15.2434 28.5342L18.9998 28.5342C19.4852 28.5342 19.8666 28.915 19.8666 29.4014C19.8666 29.8867 19.4852 30.2676 18.9998 30.2676L15.2434 30.2676ZM34.0262 30.2676C33.5408 30.2676 33.1594 29.8867 33.1594 29.4014C33.1594 28.915 33.5408 28.5342 34.0262 28.5342L37.7825 28.5342C38.268 28.5342 38.6494 28.915 38.6494 29.4014C38.6494 29.8867 38.268 30.2676 37.7825 30.2676L34.0262 30.2676ZM22.8995 34.0254C22.8995 33.54 23.2809 33.1582 23.7663 33.1582C24.2517 33.1582 24.6331 33.54 24.6331 34.0254L24.6331 37.7812C24.6331 38.2666 24.2517 38.6484 23.7663 38.6484C23.2809 38.6484 22.8995 38.2666 22.8995 37.7812L22.8995 34.0254ZM28.534 34.0254C28.534 33.54 28.9154 33.1582 29.4009 33.1582C29.8863 33.1582 30.2677 33.54 30.2677 34.0254L30.2677 37.7812C30.2677 38.2666 29.8863 38.6484 29.4009 38.6484C28.9154 38.6484 28.534 38.2666 28.534 37.7812L28.534 34.0254Z" clip-rule="evenodd" fill="url(#paint_linear_124_718_0)" fill-opacity="1.000000" fill-rule="evenodd"/>
</svg>
